<svg width="548" height="74" viewBox="0 0 548 74" fill="none" xmlns="http://www.w3.org/2000/svg">
<path d="M80.08 56V13.4H95.98C100.66 13.4 104.56 14.36 107.68 16.28C110.84 18.16 113.22 20.72 114.82 23.96C116.42 27.16 117.22 30.72 117.22 34.64C117.22 38.96 116.34 42.72 114.58 45.92C112.82 49.12 110.34 51.6 107.14 53.36C103.98 55.12 100.26 56 95.98 56H80.08ZM107.2 34.64C107.2 32.16 106.76 29.98 105.88 28.1C105 26.18 103.72 24.7 102.04 23.66C100.36 22.58 98.34 22.04 95.98 22.04H89.92V47.36H95.98C98.38 47.36 100.4 46.82 102.04 45.74C103.72 44.62 105 43.1 105.88 41.18C106.76 39.22 107.2 37.04 107.2 34.64ZM137.249 56.6C134.569 56.6 132.169 56.16 130.049 55.28C127.969 54.4 126.209 53.2 124.769 51.68C123.329 50.16 122.229 48.42 121.469 46.46C120.749 44.5 120.389 42.44 120.389 40.28C120.389 38.08 120.749 36 121.469 34.04C122.229 32.08 123.329 30.34 124.769 28.82C126.209 27.3 127.969 26.1 130.049 25.22C132.169 24.34 134.569 23.9 137.249 23.9C139.929 23.9 142.309 24.34 144.389 25.22C146.469 26.1 148.229 27.3 149.669 28.82C151.109 30.34 152.209 32.08 152.969 34.04C153.729 36 154.109 38.08 154.109 40.28C154.109 42.44 153.729 44.5 152.969 46.46C152.209 48.42 151.109 50.16 149.669 51.68C148.229 53.2 146.469 54.4 144.389 55.28C142.309 56.16 139.929 56.6 137.249 56.6ZM130.229 40.28C130.229 41.92 130.529 43.36 131.129 44.6C131.769 45.84 132.609 46.8 133.649 47.48C134.689 48.16 135.889 48.5 137.249 48.5C138.569 48.5 139.749 48.16 140.789 47.48C141.869 46.76 142.709 45.78 143.309 44.54C143.909 43.3 144.209 41.88 144.209 40.28C144.209 38.64 143.909 37.2 143.309 35.96C142.709 34.72 141.869 33.76 140.789 33.08C139.749 32.4 138.569 32.06 137.249 32.06C135.889 32.06 134.689 32.4 133.649 33.08C132.609 33.76 131.769 34.72 131.129 35.96C130.529 37.2 130.229 38.64 130.229 40.28ZM208.67 56H199.07V38.3C199.07 36.26 198.69 34.76 197.93 33.8C197.17 32.84 196.19 32.36 194.99 32.36C193.71 32.36 192.45 32.88 191.21 33.92C189.97 34.96 189.09 36.3 188.57 37.94V56H178.97V38.3C178.97 36.22 178.59 34.72 177.83 33.8C177.07 32.84 176.09 32.36 174.89 32.36C173.65 32.36 172.41 32.88 171.17 33.92C169.93 34.96 169.03 36.3 168.47 37.94V56H158.87V24.5H167.51V29.78C168.67 27.9 170.23 26.46 172.19 25.46C174.19 24.42 176.51 23.9 179.15 23.9C181.75 23.9 183.75 24.52 185.15 25.76C186.55 26.96 187.45 28.38 187.85 30.02C189.05 28.06 190.63 26.56 192.59 25.52C194.59 24.44 196.83 23.9 199.31 23.9C201.31 23.9 202.93 24.28 204.17 25.04C205.41 25.76 206.35 26.72 206.99 27.92C207.63 29.12 208.07 30.42 208.31 31.82C208.55 33.18 208.67 34.52 208.67 35.84V56ZM212.965 46.58C212.965 44.5 213.545 42.68 214.705 41.12C215.865 39.56 217.465 38.34 219.505 37.46C221.545 36.54 223.885 36.08 226.525 36.08C227.805 36.08 229.065 36.2 230.305 36.44C231.545 36.64 232.625 36.94 233.545 37.34V35.96C233.545 34.24 233.025 32.92 231.985 32C230.945 31.08 229.365 30.62 227.245 30.62C225.485 30.62 223.825 30.92 222.265 31.52C220.745 32.12 219.125 32.98 217.405 34.1L214.525 27.98C216.605 26.62 218.765 25.6 221.005 24.92C223.285 24.24 225.685 23.9 228.205 23.9C232.925 23.9 236.585 25.04 239.185 27.32C241.825 29.56 243.145 32.82 243.145 37.1V45.32C243.145 46.28 243.285 46.96 243.565 47.36C243.885 47.72 244.425 47.94 245.185 48.02V56C244.385 56.16 243.625 56.28 242.905 56.36C242.225 56.44 241.625 56.48 241.105 56.48C239.305 56.48 237.925 56.12 236.965 55.4C236.045 54.68 235.465 53.7 235.225 52.46L235.045 51.08C233.645 52.88 231.965 54.26 230.005 55.22C228.085 56.14 226.065 56.6 223.945 56.6C221.865 56.6 219.985 56.16 218.305 55.28C216.665 54.4 215.365 53.2 214.405 51.68C213.445 50.16 212.965 48.46 212.965 46.58ZM232.045 47.78C232.485 47.42 232.845 47.02 233.125 46.58C233.405 46.14 233.545 45.72 233.545 45.32V42.5C232.745 42.18 231.845 41.94 230.845 41.78C229.885 41.58 228.985 41.48 228.145 41.48C226.385 41.48 224.925 41.88 223.765 42.68C222.605 43.44 222.025 44.46 222.025 45.74C222.025 46.46 222.225 47.12 222.625 47.72C223.025 48.32 223.565 48.8 224.245 49.16C224.965 49.52 225.805 49.7 226.765 49.7C227.725 49.7 228.685 49.52 229.645 49.16C230.605 48.8 231.405 48.34 232.045 47.78ZM250.101 56V24.5H259.701V56H250.101ZM250.101 20.9V12.2H259.701V20.9H250.101ZM296.633 56H287.033V38.3C287.033 36.22 286.633 34.72 285.833 33.8C285.073 32.84 284.053 32.36 282.773 32.36C281.893 32.36 280.993 32.6 280.073 33.08C279.153 33.56 278.313 34.22 277.553 35.06C276.833 35.9 276.273 36.86 275.873 37.94V56H266.273V24.5H274.913V29.78C275.713 28.54 276.713 27.48 277.913 26.6C279.113 25.72 280.493 25.06 282.053 24.62C283.613 24.14 285.313 23.9 287.153 23.9C289.193 23.9 290.833 24.28 292.073 25.04C293.353 25.76 294.313 26.72 294.953 27.92C295.633 29.12 296.073 30.42 296.273 31.82C296.513 33.18 296.633 34.52 296.633 35.84V56ZM317.795 56V13.4H346.715V22.04H327.635V31.22H343.355V39.2H327.635V56H317.795ZM364.359 56.6C361.679 56.6 359.279 56.16 357.159 55.28C355.079 54.4 353.319 53.2 351.879 51.68C350.439 50.16 349.339 48.42 348.579 46.46C347.859 44.5 347.499 42.44 347.499 40.28C347.499 38.08 347.859 36 348.579 34.04C349.339 32.08 350.439 30.34 351.879 28.82C353.319 27.3 355.079 26.1 357.159 25.22C359.279 24.34 361.679 23.9 364.359 23.9C367.039 23.9 369.419 24.34 371.499 25.22C373.579 26.1 375.339 27.3 376.779 28.82C378.219 30.34 379.319 32.08 380.079 34.04C380.839 36 381.219 38.08 381.219 40.28C381.219 42.44 380.839 44.5 380.079 46.46C379.319 48.42 378.219 50.16 376.779 51.68C375.339 53.2 373.579 54.4 371.499 55.28C369.419 56.16 367.039 56.6 364.359 56.6ZM357.339 40.28C357.339 41.92 357.639 43.36 358.239 44.6C358.879 45.84 359.719 46.8 360.759 47.48C361.799 48.16 362.999 48.5 364.359 48.5C365.679 48.5 366.859 48.16 367.899 47.48C368.979 46.76 369.819 45.78 370.419 44.54C371.019 43.3 371.319 41.88 371.319 40.28C371.319 38.64 371.019 37.2 370.419 35.96C369.819 34.72 368.979 33.76 367.899 33.08C366.859 32.4 365.679 32.06 364.359 32.06C362.999 32.06 361.799 32.4 360.759 33.08C359.719 33.76 358.879 34.72 358.239 35.96C357.639 37.2 357.339 38.64 357.339 40.28ZM405.96 32.72C403.64 32.72 401.54 33.1 399.66 33.86C397.78 34.58 396.42 35.66 395.58 37.1V56H385.98V24.5H394.8V30.86C395.88 28.74 397.28 27.08 399 25.88C400.72 24.68 402.52 24.06 404.4 24.02C404.84 24.02 405.16 24.02 405.36 24.02C405.6 24.02 405.8 24.04 405.96 24.08V32.72ZM449.058 25.88C448.938 25.68 448.518 25.38 447.798 24.98C447.078 24.54 446.178 24.08 445.098 23.6C444.018 23.12 442.838 22.7 441.558 22.34C440.278 21.98 438.998 21.8 437.718 21.8C436.038 21.8 434.738 22.1 433.818 22.7C432.898 23.26 432.438 24.14 432.438 25.34C432.438 26.3 432.778 27.06 433.458 27.62C434.178 28.18 435.198 28.68 436.518 29.12C437.838 29.52 439.458 30 441.378 30.56C444.098 31.28 446.458 32.16 448.458 33.2C450.458 34.2 451.978 35.5 453.018 37.1C454.098 38.7 454.638 40.82 454.638 43.46C454.638 45.86 454.198 47.9 453.318 49.58C452.438 51.22 451.238 52.56 449.718 53.6C448.238 54.6 446.538 55.34 444.618 55.82C442.698 56.26 440.718 56.48 438.678 56.48C436.598 56.48 434.458 56.28 432.258 55.88C430.098 55.44 428.018 54.84 426.018 54.08C424.018 53.28 422.178 52.32 420.498 51.2L424.818 42.62C424.978 42.82 425.498 43.2 426.378 43.76C427.258 44.28 428.338 44.84 429.618 45.44C430.938 46 432.398 46.5 433.998 46.94C435.598 47.38 437.218 47.6 438.858 47.6C440.618 47.6 441.918 47.32 442.758 46.76C443.638 46.2 444.078 45.42 444.078 44.42C444.078 43.34 443.618 42.5 442.698 41.9C441.818 41.3 440.598 40.76 439.038 40.28C437.518 39.8 435.758 39.26 433.758 38.66C431.158 37.86 428.998 36.96 427.278 35.96C425.598 34.96 424.338 33.74 423.498 32.3C422.698 30.86 422.298 29.06 422.298 26.9C422.298 23.9 422.998 21.38 424.398 19.34C425.838 17.26 427.758 15.7 430.158 14.66C432.558 13.58 435.178 13.04 438.018 13.04C440.018 13.04 441.938 13.28 443.778 13.76C445.658 14.24 447.398 14.84 448.998 15.56C450.638 16.28 452.098 17 453.378 17.72L449.058 25.88ZM457.418 46.58C457.418 44.5 457.998 42.68 459.158 41.12C460.318 39.56 461.918 38.34 463.958 37.46C465.998 36.54 468.338 36.08 470.978 36.08C472.258 36.08 473.518 36.2 474.758 36.44C475.998 36.64 477.078 36.94 477.998 37.34V35.96C477.998 34.24 477.478 32.92 476.438 32C475.398 31.08 473.818 30.62 471.698 30.62C469.938 30.62 468.278 30.92 466.718 31.52C465.198 32.12 463.578 32.98 461.858 34.1L458.978 27.98C461.058 26.62 463.218 25.6 465.458 24.92C467.738 24.24 470.138 23.9 472.658 23.9C477.378 23.9 481.038 25.04 483.638 27.32C486.278 29.56 487.598 32.82 487.598 37.1V45.32C487.598 46.28 487.738 46.96 488.018 47.36C488.338 47.72 488.878 47.94 489.638 48.02V56C488.838 56.16 488.078 56.28 487.358 56.36C486.678 56.44 486.078 56.48 485.558 56.48C483.758 56.48 482.378 56.12 481.418 55.4C480.498 54.68 479.918 53.7 479.678 52.46L479.498 51.08C478.098 52.88 476.418 54.26 474.458 55.22C472.538 56.14 470.518 56.6 468.398 56.6C466.318 56.6 464.438 56.16 462.758 55.28C461.118 54.4 459.818 53.2 458.858 51.68C457.898 50.16 457.418 48.46 457.418 46.58ZM476.498 47.78C476.938 47.42 477.298 47.02 477.578 46.58C477.858 46.14 477.998 45.72 477.998 45.32V42.5C477.198 42.18 476.298 41.94 475.298 41.78C474.338 41.58 473.438 41.48 472.598 41.48C470.838 41.48 469.378 41.88 468.218 42.68C467.058 43.44 466.478 44.46 466.478 45.74C466.478 46.46 466.678 47.12 467.078 47.72C467.478 48.32 468.018 48.8 468.698 49.16C469.418 49.52 470.258 49.7 471.218 49.7C472.178 49.7 473.138 49.52 474.098 49.16C475.058 48.8 475.858 48.34 476.498 47.78ZM494.434 12.2H504.034V44.78C504.034 46.1 504.274 47.04 504.754 47.6C505.234 48.16 505.914 48.44 506.794 48.44C507.394 48.44 507.994 48.36 508.594 48.2C509.234 48 509.794 47.78 510.274 47.54L511.534 54.74C510.334 55.3 508.954 55.74 507.394 56.06C505.834 56.38 504.374 56.54 503.014 56.54C500.294 56.54 498.174 55.82 496.654 54.38C495.174 52.9 494.434 50.82 494.434 48.14V12.2ZM529.712 56.6C527.032 56.6 524.652 56.18 522.572 55.34C520.492 54.46 518.712 53.28 517.232 51.8C515.792 50.32 514.692 48.62 513.932 46.7C513.172 44.74 512.792 42.7 512.792 40.58C512.792 37.54 513.452 34.78 514.772 32.3C516.132 29.78 518.072 27.76 520.592 26.24C523.112 24.68 526.152 23.9 529.712 23.9C533.272 23.9 536.292 24.66 538.772 26.18C541.292 27.7 543.212 29.7 544.532 32.18C545.852 34.62 546.512 37.28 546.512 40.16C546.512 40.72 546.472 41.28 546.392 41.84C546.352 42.36 546.312 42.82 546.272 43.22H522.992C523.112 44.62 523.492 45.8 524.132 46.76C524.812 47.72 525.672 48.46 526.712 48.98C527.752 49.46 528.852 49.7 530.012 49.7C531.452 49.7 532.792 49.36 534.032 48.68C535.312 48 536.192 47.08 536.672 45.92L544.832 48.2C544.032 49.84 542.892 51.3 541.412 52.58C539.972 53.82 538.252 54.8 536.252 55.52C534.292 56.24 532.112 56.6 529.712 56.6ZM522.752 37.34H536.432C536.272 36.02 535.892 34.88 535.292 33.92C534.692 32.92 533.892 32.16 532.892 31.64C531.892 31.08 530.792 30.8 529.592 30.8C528.352 30.8 527.232 31.08 526.232 31.64C525.272 32.16 524.492 32.92 523.892 33.92C523.292 34.88 522.912 36.02 522.752 37.34Z" fill="white"/>
<path fill-rule="evenodd" clip-rule="evenodd" d="M0.886416 45.1073L32.9864 12.7991C39.8023 5.93894 50.3755 5.1653 58.0389 10.4782C66.0436 5.97049 76.3553 7.14172 83.1613 13.9919C84.2796 15.1174 84.2796 16.9424 83.1613 18.0679C82.0429 19.1935 80.2298 19.1935 79.1115 18.0679C74.615 13.5423 68.0155 12.4235 62.4792 14.7116C68.4409 22.477 67.8833 33.6767 60.8063 40.7996L28.7064 73.1078C27.5245 74.2974 25.6083 74.2974 24.4264 73.1078L0.886416 49.4151C-0.295472 48.2256 -0.295472 46.2969 0.886416 45.1073ZM40.4763 33.2609C36.9306 29.6922 36.9306 23.9063 40.4763 20.3376C44.0219 16.7689 49.7706 16.7689 53.3163 20.3376C56.8619 23.9063 56.8619 29.6922 53.3163 33.2609C49.7706 36.8296 44.0219 36.8296 40.4763 33.2609Z" fill="white"/>
</svg>
